<svg width="84" height="68" viewBox="0 0 84 68" fill="none" xmlns="http://www.w3.org/2000/svg">
<path d="M78.4112 47.4733C79.6151 47.6494 80.4584 48.7718 80.171 49.954C79.0777 54.4501 76.6827 58.5436 73.263 61.7084C69.3024 65.3738 64.206 67.5725 58.8219 67.9385C53.4379 68.3046 48.0908 66.8159 43.6705 63.7203C39.8539 61.0475 36.9269 57.3158 35.2352 53.0091C34.7903 51.8766 35.474 50.6504 36.6429 50.313V50.313C37.8119 49.9755 39.0214 50.6563 39.4903 51.779C40.8866 55.1215 43.2063 58.0163 46.1979 60.1114C49.7936 62.6296 54.1433 63.8405 58.5231 63.5428C62.9028 63.245 67.0486 61.4564 70.2704 58.4747C72.9509 55.994 74.8575 52.8119 75.7884 49.3112C76.1011 48.1354 77.2074 47.2971 78.4112 47.4733V47.4733Z" fill="#1A428A"/>
<circle cx="78.0706" cy="47.4352" r="5.9294" fill="#1A428A"/>
<path fill-rule="evenodd" clip-rule="evenodd" d="M27.1568 8.62263C21.1626 11.9784 17.1784 17.9215 17.1784 24.6935C17.1784 25.7778 17.2806 26.8409 17.4767 27.8754C16.4057 28.1349 15.287 28.2724 14.1362 28.2724C13.5007 28.2724 12.8751 28.2305 12.2618 28.1493C11.6931 25.9868 11.3892 23.7651 11.3554 21.5329C11.329 19.7819 10.0765 18.2254 8.33393 18.0514C6.59134 17.8774 5.02205 19.1504 5.01106 20.9017C5.00219 22.3156 5.08155 23.7276 5.24823 25.1294C2.04678 22.5378 0 18.576 0 14.1362C0 6.329 6.329 0 14.1362 0C19.9874 0 25.0082 3.55485 27.1568 8.62263ZM72.8075 24.7968C72.5526 27.1365 72.0548 29.4498 71.3181 31.6987C69.8387 36.2147 67.4291 40.3704 64.2447 43.8977C61.0603 47.425 57.1717 50.2456 52.83 52.1774C48.4883 54.1092 43.7898 55.1094 39.0377 55.1134C34.2856 55.1175 29.5854 54.1252 25.2404 52.2008C20.8954 50.2763 17.0021 47.4623 13.8117 43.9404C10.6213 40.4185 8.20468 36.2669 6.7177 31.7534C6.00628 29.594 5.51523 27.3748 5.24823 25.1294C7.21817 26.7241 9.62531 27.8 12.2618 28.1493C12.4048 28.6932 12.5646 29.2333 12.7411 29.769C13.9507 33.4405 15.9166 36.8177 18.5119 39.6827C21.1071 42.5476 24.2742 44.8367 27.8087 46.4022C31.3432 47.9677 35.1666 48.7748 39.0323 48.7716C42.898 48.7683 46.7201 47.9547 50.2519 46.3832C53.7838 44.8117 56.9469 42.5173 59.5374 39.6479C62.1278 36.7786 64.0879 33.3981 65.2913 29.7245C65.4678 29.1856 65.6275 28.6421 65.7702 28.0949C68.4389 27.6687 70.8583 26.4956 72.8075 24.7968ZM72.8075 24.7968C72.9503 23.4853 73.0169 22.1655 73.0063 20.8441C72.9924 19.0929 71.4209 17.8224 69.6786 17.9994C67.9363 18.1764 66.6865 19.735 66.663 21.4861C66.6331 23.7151 66.3338 25.9343 65.7702 28.0949C65.0386 28.2117 64.2881 28.2724 63.5235 28.2724C62.1262 28.2724 60.7762 28.0697 59.5014 27.692C59.6756 26.7153 59.766 25.7138 59.766 24.6935C59.766 18.1417 56.0367 12.3657 50.3658 8.95806C52.4318 3.71241 57.5441 0 63.5235 0C71.3307 0 77.6597 6.329 77.6597 14.1362C77.6597 18.3902 75.7808 22.2052 72.8075 24.7968ZM31.8512 21.115C31.8512 22.4985 30.7296 23.6201 29.3461 23.6201C27.9625 23.6201 26.8409 22.4985 26.8409 21.115C26.8409 19.7314 27.9625 18.6098 29.3461 18.6098C30.7296 18.6098 31.8512 19.7314 31.8512 21.115ZM47.9559 23.6201C49.3394 23.6201 50.461 22.4985 50.461 21.115C50.461 19.7314 49.3394 18.6098 47.9559 18.6098C46.5723 18.6098 45.4507 19.7314 45.4507 21.115C45.4507 22.4985 46.5723 23.6201 47.9559 23.6201ZM33.8551 22.7151C34.3519 20.5233 36.2999 18.9674 38.5473 18.9674C40.8164 18.9674 42.777 20.5527 43.252 22.7715L44.2822 27.5842C45.0678 31.254 42.27 34.7141 38.5171 34.7141C34.735 34.7141 31.9311 31.2035 32.7671 27.515L33.8551 22.7151Z" fill="#1A428A"/>
</svg>